# xmcd
#
# Track frame offsets: 
#        150
#        19434
#        45992
#        72468
#        91263
#        132573
#        154864
#        175241
#        194421
#        217831
#        240378
#        272693
#        291019
#
# Disc length: 4250 seconds
#
# Revision: 0
# Processed by: cddbd v1.5.2PL0 Copyright (c) Steve Scherf et al.
# Submitted via: ExactAudioCopy v1.3
#
DISCID=b910980d
DTITLE=Jimmy Dawkins - Kant Sheck Dees Bluze
DYEAR=1991
DGENRE=Chicago Blues
TTITLE0=I Ain't Got It
TTITLE1=Rockin D. Blues
TTITLE2=Make The Hard Way
TTITLE3=A Love Like That
TTITLE4=Kant Sheck Dees Bluze
TTITLE5=Gittar Rapp
TTITLE6=Too Bad Baby
TTITLE7=My Man Loves Me
TTITLE8=Get On The Ball
TTITLE9=Wes Cide Bluze
TTITLE10=Beetin Nockin Ringin
TTITLE11=Luv Somebody
TTITLE12=Gotta Hold On
EXTD=
EXTT0=
EXTT1=
EXTT2=
EXTT3=
EXTT4=
EXTT5=
EXTT6=
EXTT7=
EXTT8=
EXTT9=
EXTT10=
EXTT11=
EXTT12=
PLAYORDER=
